<svg xmlns="http://www.w3.org/2000/svg" viewBox="0 0 400 400">
  <defs>
    <filter id="simpleShadow">
      <feDropShadow dx="2" dy="3" stdDeviation="3" flood-color="rgba(0,0,0,0.3)"/>
    </filter>
  </defs>
  
  <!-- Moldura -->
  <rect x="20" y="20" width="360" height="360" fill="#222" rx="10" ry="10" filter="url(#simpleShadow)"/>
  
  <!-- Tabuleiro -->
  <rect x="40" y="40" width="320" height="320" fill="#1a1a1a"/>
  
  <!-- Casas verdes -->
  <g fill="#1ae2b0">
    <!-- Padrão alternado de casas verdes -->
    <!-- Linha 1, 3, 5, 7 -->
    <rect x="40" y="40" width="40" height="40"/>
    <rect x="120" y="40" width="40" height="40"/>
    <rect x="200" y="40" width="40" height="40"/>
    <rect x="280" y="40" width="40" height="40"/>
    
    <rect x="80" y="80" width="40" height="40"/>
    <rect x="160" y="80" width="40" height="40"/>
    <rect x="240" y="80" width="40" height="40"/>
    <rect x="320" y="80" width="40" height="40"/>
    
    <rect x="40" y="120" width="40" height="40"/>
    <rect x="120" y="120" width="40" height="40"/>
    <rect x="200" y="120" width="40" height="40"/>
    <rect x="280" y="120" width="40" height="40"/>
    
    <rect x="80" y="160" width="40" height="40"/>
    <rect x="160" y="160" width="40" height="40"/>
    <rect x="240" y="160" width="40" height="40"/>
    <rect x="320" y="160" width="40" height="40"/>
    
    <rect x="40" y="200" width="40" height="40"/>
    <rect x="120" y="200" width="40" height="40"/>
    <rect x="200" y="200" width="40" height="40"/>
    <rect x="280" y="200" width="40" height="40"/>
    
    <rect x="80" y="240" width="40" height="40"/>
    <rect x="160" y="240" width="40" height="40"/>
    <rect x="240" y="240" width="40" height="40"/>
    <rect x="320" y="240" width="40" height="40"/>
    
    <rect x="40" y="280" width="40" height="40"/>
    <rect x="120" y="280" width="40" height="40"/>
    <rect x="200" y="280" width="40" height="40"/>
    <rect x="280" y="280" width="40" height="40"/>
    
    <rect x="80" y="320" width="40" height="40"/>
    <rect x="160" y="320" width="40" height="40"/>
    <rect x="240" y="320" width="40" height="40"/>
    <rect x="320" y="320" width="40" height="40"/>
  </g>
</svg>